{
  "header": {
    "PPQ": 96,
    "timeSignature": [
      4,
      4
    ],
    "bpm": 120,
    "name": ""
  },
  "tempo": [],
  "timeSignature": [
    {
      "absoluteTime": 0,
      "seconds": 0,
      "numerator": 4,
      "denominator": 2,
      "click": 36,
      "notesQ": 8
    },
    {
      "absoluteTime": 0,
      "seconds": 0,
      "numerator": 4,
      "denominator": 2,
      "click": 36,
      "notesQ": 8
    }
  ],
  "startTime": 4,
  "duration": 15.229166666666666,
  "tracks": [
    {
      "startTime": 4,
      "duration": 15.229166666666666,
      "length": 26,
      "notes": [
        {
          "name": "F#2",
          "midi": 42,
          "time": 4,
          "velocity": 0.7874015748031497,
          "duration": 0.11979166666666696
        },
        {
          "name": "F#2",
          "midi": 42,
          "time": 4.5,
          "velocity": 0.7874015748031497,
          "duration": 0.11979166666666696
        },
        {
          "name": "F#2",
          "midi": 42,
          "time": 5,
          "velocity": 0.7874015748031497,
          "duration": 0.11979166666666696
        },
        {
          "name": "F#2",
          "midi": 42,
          "time": 5.5,
          "velocity": 0.7874015748031497,
          "duration": 0.11979166666666696
        },
        {
          "name": "F#2",
          "midi": 42,
          "time": 6,
          "velocity": 0.7874015748031497,
          "duration": 0.11979166666666696
        },
        {
          "name": "F#2",
          "midi": 42,
          "time": 6.5,
          "velocity": 0.7874015748031497,
          "duration": 0.11979166666666696
        },
        {
          "name": "F#2",
          "midi": 42,
          "time": 7,
          "velocity": 0.7874015748031497,
          "duration": 0.11979166666666696
        },
        {
          "name": "C2",
          "midi": 36,
          "time": 7.25,
          "velocity": 0.7874015748031497,
          "duration": 0.11979166666666696
        },
        {
          "name": "D2",
          "midi": 38,
          "time": 7.5,
          "velocity": 0.7874015748031497,
          "duration": 0.25
        },
        {
          "name": "C2",
          "midi": 36,
          "time": 7.75,
          "velocity": 0.7874015748031497,
          "duration": 0.11979166666666696
        },
        {
          "name": "C2",
          "midi": 36,
          "time": 8,
          "velocity": 0.7952755905511811,
          "duration": 0.25
        },
        {
          "name": "C#2",
          "midi": 37,
          "time": 8.5,
          "velocity": 0.7952755905511811,
          "duration": 0.25
        },
        {
          "name": "C2",
          "midi": 36,
          "time": 9,
          "velocity": 0.7952755905511811,
          "duration": 0.25
        },
        {
          "name": "D2",
          "midi": 38,
          "time": 9,
          "velocity": 0.952755905511811,
          "duration": 0.25
        },
        {
          "name": "C#2",
          "midi": 37,
          "time": 9.5,
          "velocity": 0.7952755905511811,
          "duration": 0.25
        },
        {
          "name": "C2",
          "midi": 36,
          "time": 10,
          "velocity": 0.7952755905511811,
          "duration": 0.25
        },
        {
          "name": "C#2",
          "midi": 37,
          "time": 10.5,
          "velocity": 0.9291338582677166,
          "duration": 0.25
        },
        {
          "name": "D2",
          "midi": 38,
          "time": 11,
          "velocity": 0.7952755905511811,
          "duration": 0.25
        },
        {
          "name": "C2",
          "midi": 36,
          "time": 12,
          "velocity": 0.7952755905511811,
          "duration": 0.1875
        },
        {
          "name": "C#2",
          "midi": 37,
          "time": 12.5,
          "velocity": 0.952755905511811,
          "duration": 0.25
        },
        {
          "name": "C2",
          "midi": 36,
          "time": 13,
          "velocity": 0.7952755905511811,
          "duration": 0.25
        },
        {
          "name": "D2",
          "midi": 38,
          "time": 13,
          "velocity": 0.7952755905511811,
          "duration": 0.25
        },
        {
          "name": "C#2",
          "midi": 37,
          "time": 13.5,
          "velocity": 0.7952755905511811,
          "duration": 0.25
        },
        {
          "name": "C2",
          "midi": 36,
          "time": 14,
          "velocity": 0.7952755905511811,
          "duration": 0.1875
        },
        {
          "name": "C#2",
          "midi": 37,
          "time": 14.5,
          "velocity": 0.9448818897637795,
          "duration": 0.25
        },
        {
          "name": "D2",
          "midi": 38,
          "time": 15,
          "velocity": 0.952755905511811,
          "duration": 0.22916666666666607
        }
      ],
      "controlChanges": {},
      "id": 0,
      "name": "Intro 01 - 4/4 - 60-150 bpm - Kick + Snare",
      "channelNumber": 0,
      "isPercussion": false
    }
  ]
}