{
  "header": {
	"PPQ": 96,
	"timeSignature": [
	  4,
	  4
	],
	"bpm": 120,
	"name": ""
  },
  "tempo": [],
  "timeSignature": [
	{
	  "absoluteTime": 0,
	  "seconds": 0,
	  "numerator": 4,
	  "denominator": 2,
	  "click": 36,
	  "notesQ": 8
	},
	{
	  "absoluteTime": 0,
	  "seconds": 0,
	  "numerator": 4,
	  "denominator": 2,
	  "click": 36,
	  "notesQ": 8
	}
  ],
  "startTime": 11,
  "duration": 33.869791666666664,
  "tracks": [
	{
	  "startTime": 11,
	  "duration": 33.869791666666664,
	  "length": 24,
	  "notes": [
		{
		  "name": "D2",
		  "midi": 38,
		  "time": 11,
		  "velocity": 0.7874015748031497,
		  "duration": 0.125
		},
		{
		  "name": "D2",
		  "midi": 38,
		  "time": 13,
		  "velocity": 0.7874015748031497,
		  "duration": 0.125
		},
		{
		  "name": "C2",
		  "midi": 36,
		  "time": 14,
		  "velocity": 0.7401574803149606,
		  "duration": 0.125
		},
		{
		  "name": "D2",
		  "midi": 38,
		  "time": 15,
		  "velocity": 0.7874015748031497,
		  "duration": 0.125
		},
		{
		  "name": "D2",
		  "midi": 38,
		  "time": 17,
		  "velocity": 0.7874015748031497,
		  "duration": 0.125
		},
		{
		  "name": "C2",
		  "midi": 36,
		  "time": 18,
		  "velocity": 0.7401574803149606,
		  "duration": 0.125
		},
		{
		  "name": "D2",
		  "midi": 38,
		  "time": 19,
		  "velocity": 0.7874015748031497,
		  "duration": 0.125
		},
		{
		  "name": "D2",
		  "midi": 38,
		  "time": 21,
		  "velocity": 0.7874015748031497,
		  "duration": 0.125
		},
		{
		  "name": "C2",
		  "midi": 36,
		  "time": 22,
		  "velocity": 0.7874015748031497,
		  "duration": 0.25
		},
		{
		  "name": "C2",
		  "midi": 36,
		  "time": 22.5,
		  "velocity": 0.7874015748031497,
		  "duration": 0.25
		},
		{
		  "name": "D2",
		  "midi": 38,
		  "time": 23,
		  "velocity": 0.7874015748031497,
		  "duration": 0.125
		},
		{
		  "name": "C2",
		  "midi": 36,
		  "time": 24.5,
		  "velocity": 0.7874015748031497,
		  "duration": 0.25
		},
		{
		  "name": "D2",
		  "midi": 38,
		  "time": 25,
		  "velocity": 0.7874015748031497,
		  "duration": 0.125
		},
		{
		  "name": "C2",
		  "midi": 36,
		  "time": 26,
		  "velocity": 0.7874015748031497,
		  "duration": 0.25
		},
		{
		  "name": "C2",
		  "midi": 36,
		  "time": 26.5,
		  "velocity": 0.7874015748031497,
		  "duration": 0.25
		},
		{
		  "name": "D2",
		  "midi": 38,
		  "time": 27,
		  "velocity": 0.7874015748031497,
		  "duration": 0.125
		},
		{
		  "name": "F#2",
		  "midi": 42,
		  "time": 27.5,
		  "velocity": 0.7401574803149606,
		  "duration": 0.125
		},
		{
		  "name": "C2",
		  "midi": 36,
		  "time": 28.25,
		  "velocity": 0.7874015748031497,
		  "duration": 0.25
		},
		{
		  "name": "D2",
		  "midi": 38,
		  "time": 29,
		  "velocity": 0.7874015748031497,
		  "duration": 0.125
		},
		{
		  "name": "F#2",
		  "midi": 42,
		  "time": 29.5,
		  "velocity": 0.7401574803149606,
		  "duration": 0.125
		},
		{
		  "name": "C2",
		  "midi": 36,
		  "time": 33.25,
		  "velocity": 0.7874015748031497,
		  "duration": 0.1197916666666643
		},
		{
		  "name": "D2",
		  "midi": 38,
		  "time": 33.5,
		  "velocity": 0.7874015748031497,
		  "duration": 0.0572916666666643
		},
		{
		  "name": "D2",
		  "midi": 38,
		  "time": 33.625,
		  "velocity": 0.5433070866141733,
		  "duration": 0.0572916666666643
		},
		{
		  "name": "C2",
		  "midi": 36,
		  "time": 33.75,
		  "velocity": 0.7874015748031497,
		  "duration": 0.1197916666666643
		}
	  ],
	  "controlChanges": {},
	  "id": 0,
	  "name": "",
	  "channelNumber": 0,
	  "isPercussion": false
	}
  ]
}
